<svg width="300" height="360" viewBox="0 0 300 360" fill="none" xmlns="http://www.w3.org/2000/svg">
<path d="M290 0H10C4.47715 0 0 4.47715 0 10V20C0 25.5228 4.47716 30 10 30H110C113.283 30 116.534 30.6466 119.567 31.903C122.6 33.1594 125.356 35.0009 127.678 37.3223C129.999 39.6438 131.841 42.3998 133.097 45.4329C134.352 48.463 134.999 51.7105 135 54.9902V306C134.999 309.148 134.352 312.266 133.097 315.175C131.841 318.087 129.999 320.732 127.678 322.961C125.356 325.189 122.6 326.957 119.567 328.163C116.534 329.369 113.283 329.99 110 329.99L10 330C4.47715 330 0 334.477 0 340V350C0 355.523 4.47716 360 10 360H290C295.523 360 300 355.523 300 350V340C300 334.477 295.523 330 290 330L190 329.99C186.717 329.99 183.466 329.369 180.433 328.163C177.4 326.957 174.644 325.189 172.322 322.961C170.001 320.732 168.159 318.087 166.903 315.175C165.648 312.266 165 306 165 306V54.9902C165.001 51.7105 165.648 48.463 166.903 45.4329C168.159 42.3998 170.001 39.6438 172.322 37.3223C174.644 35.0009 177.4 33.1594 180.433 31.903C183.466 30.6466 186.717 30 190 30H290C295.523 30 300 25.5228 300 20V10C300 4.47715 295.523 0 290 0Z" fill="#D9D9D9"/>
</svg>
