<svg width="198" height="48" viewBox="0 0 198 48" fill="none" xmlns="http://www.w3.org/2000/svg">
<path d="M23.5688 0C10.5725 0 0 10.5725 0 23.5688C0 36.565 10.5725 47.1375 23.5688 47.1375C36.565 47.1375 47.1375 36.565 47.1375 23.5688C47.1417 10.5725 36.565 0 23.5688 0ZM5.10123 32.9439C8.36901 32.3701 13.3039 31.9918 19.9975 35.9331C25.0987 38.5066 29.4724 39.5002 32.3868 39.6374C34.029 39.7122 35.5714 39.6208 36.9558 39.3713C33.343 42.4354 28.6741 44.2896 23.5729 44.2896C15.5157 44.2896 8.52699 39.6707 5.10123 32.9439ZM43.2295 30.1043C41.0343 32.3701 38.1407 33.264 34.8688 33.8045C30.4452 34.5362 24.5957 33.7587 19.9476 32.4574C16.9168 31.6093 14.1271 30.94 10.8011 30.5741C7.93247 30.2581 5.40057 30.1708 3.92466 30.15C3.23036 28.0796 2.84787 25.8678 2.84787 23.5688C2.84787 12.144 12.144 2.84787 23.5688 2.84787C23.9928 2.84787 24.4169 2.8645 24.8326 2.88945C24.0053 3.87061 22.5377 5.63754 21.3279 7.26727C19.5027 9.7285 17.2868 12.302 17.291 16.235C17.2951 18.5382 19.141 21.332 21.0701 23.0615C22.5128 24.3587 22.8204 25.5352 22.3132 26.9779C22.043 27.747 20.5338 30.0794 18.6588 31.0356L22.2467 31.9502C22.2467 31.9502 24.9366 30.2914 26.6494 27.7262C28.3706 25.1444 27.8343 21.8725 25.4687 19.7065C23.1655 17.5986 21.1657 15.3577 21.3487 13.5284C21.5357 11.6991 22.097 10.0902 24.1882 7.06356C25.502 5.15943 26.5039 3.79994 27.0028 3.13474C36.7979 4.77694 44.2896 13.3081 44.2896 23.5646C44.2896 25.8512 43.9155 28.0464 43.2295 30.1043Z" fill="#ffffff"/>
<path d="M76.099 24.6705C76.7891 25.7348 77.1342 26.9862 77.1342 28.4372C77.1342 30.2623 76.6311 31.8754 75.6292 33.2723C74.6272 34.6693 73.2303 35.7502 71.4384 36.5152C69.6466 37.2802 67.6177 37.6626 65.3436 37.6626H51.8525L56.9288 9.41672H69.8004C72.5568 9.41672 74.7353 9.97382 76.3276 11.088C77.9241 12.2022 78.7223 13.7031 78.7223 15.5823C78.7223 17.1663 78.2151 18.6047 77.2007 19.8936C76.1863 21.1824 74.8642 22.0846 73.2469 22.5959C74.4609 22.9161 75.4088 23.6062 76.099 24.6705ZM67.6468 30.0877C68.2164 29.6054 68.4991 28.986 68.4991 28.2335C68.4991 27.6972 68.2995 27.2731 67.9004 26.9654C67.5013 26.6578 66.9525 26.4998 66.2499 26.4998H62.2587L61.4979 30.8111H65.4891C66.3621 30.8153 67.0814 30.5741 67.6468 30.0877ZM69.0437 19.6109C69.4803 19.1535 69.6964 18.5756 69.6964 17.8772C69.6964 17.3658 69.5551 16.9709 69.2807 16.6882C69.0021 16.4054 68.6113 16.2641 68.1 16.2641H64.0755L63.3521 20.2927H67.3766C68.0542 20.2968 68.6072 20.0682 69.0437 19.6109Z" fill="#ffffff"/>
<path d="M102.794 10.772C104.715 11.8946 106.207 13.4453 107.271 15.4284C108.336 17.4115 108.868 19.6691 108.868 22.2051C108.868 25.1902 108.19 27.8925 106.839 30.308C105.484 32.7235 103.634 34.6277 101.289 36.0121C98.944 37.4007 96.3456 38.0908 93.4936 38.0908C91.0032 38.0908 88.7956 37.5213 86.8749 36.3863C84.9541 35.2513 83.4616 33.6798 82.3973 31.6717C81.3329 29.6636 80.8008 27.3937 80.8008 24.8576C80.8008 21.8725 81.4784 19.1785 82.8296 16.7713C84.185 14.3683 86.035 12.4849 88.3799 11.1254C90.7247 9.76593 93.3231 9.08411 96.1751 9.08411C98.6655 9.08826 100.873 9.64952 102.794 10.772ZM92.6039 17.7234C91.6726 18.3844 90.9201 19.2907 90.338 20.4382C89.7601 21.5856 89.4691 22.8495 89.4691 24.2215C89.4691 25.3856 89.6853 26.4416 90.1219 27.3895C90.5584 28.3416 91.1446 29.0857 91.8805 29.6262C92.6163 30.1667 93.4229 30.4369 94.2918 30.4369C95.3312 30.4369 96.304 30.1002 97.2104 29.4267C98.1167 28.7531 98.8442 27.8343 99.3847 26.6744C99.9293 25.5145 100.2 24.2298 100.2 22.8287C100.2 21.0618 99.7589 19.6025 98.8775 18.4509C97.9961 17.2993 96.8902 16.7256 95.5598 16.7256C94.5205 16.7339 93.5351 17.0665 92.6039 17.7234Z" fill="#ffffff"/>
<path d="M133.256 10.4935C135.119 11.4331 136.641 12.6803 137.825 14.2394L132.35 20.538C131.697 19.403 130.882 18.4842 129.905 17.7857C128.924 17.0873 127.939 16.738 126.949 16.738C125.86 16.738 124.871 17.054 123.973 17.6901C123.079 18.322 122.364 19.2034 121.832 20.3259C121.299 21.4484 121.033 22.6957 121.033 24.0718C121.033 25.818 121.47 27.2481 122.339 28.3707C123.208 29.4932 124.334 30.0544 125.71 30.0544C126.629 30.0544 127.644 29.7593 128.758 29.1647C129.872 28.5702 130.887 27.7845 131.805 26.8074L136.121 32.4741C134.549 34.1911 132.72 35.5589 130.629 36.5775C128.538 37.5961 126.513 38.1033 124.555 38.1033C122.16 38.1033 120.04 37.5337 118.19 36.3987C116.34 35.2638 114.909 33.6922 113.891 31.6842C112.876 29.6761 112.369 27.4061 112.369 24.8701C112.369 21.9099 113.038 19.2284 114.381 16.8253C115.724 14.4223 117.554 12.5348 119.873 11.1587C122.193 9.78256 124.758 9.09657 127.561 9.09657C129.498 9.08826 131.394 9.55806 133.256 10.4935Z" fill="#ffffff"/>
<path d="M160.874 9.41672H169.289L164.212 37.592H155.798L157.648 27.4228H149.778L147.927 37.592H139.513L144.589 9.41672H153.004L151.046 20.3509H158.916L160.874 9.41672Z" fill="#ffffff"/>
<path d="M195.053 25.7099C194.616 28.2127 193.76 30.387 192.479 32.2413C191.199 34.0955 189.582 35.534 187.636 36.5567C185.69 37.5795 183.507 38.0909 181.088 38.0909C178.934 38.0909 177.055 37.6917 175.446 36.9018C173.837 36.1077 172.594 34.9727 171.713 33.4927C170.831 32.0126 170.391 30.279 170.391 28.2917C170.391 27.5932 170.474 26.7326 170.644 25.7099L173.584 9.41672H181.998L179.063 25.7099C178.988 26.0591 178.955 26.4083 178.955 26.7576C178.955 27.8344 179.254 28.695 179.861 29.3394C180.468 29.9838 181.229 30.3081 182.148 30.3081C183.212 30.3081 184.164 29.884 185.012 29.0359C185.856 28.1877 186.401 27.0819 186.646 25.7099L189.586 9.41672H198L195.053 25.7099Z" fill="#ffffff"/>
</svg>
